<svg style="height: 32px; width: 32px;" xmlns="http://www.w3.org/2000/svg" viewBox="0 0 512 512"><path d="M10 10h492v492H10z" fill="#ffffff" fill-opacity="0" stroke="#dab965" stroke-opacity="1" stroke-width="10"></path><g class="" style="" transform="translate(4,-80)"><path d="M166.844 112.344c-42.01 38.554-97.815 75.023-147.53 86.03 39.097 14.38 89.036 18.718 134.717 9.157 53.264 31.33 128.095 32.185 184.876 0 44.99 15.297 96.346 13.18 149.688-9.31-59.564-9.606-125.004-51.588-155.25-85.876-55.502 39.62-111 32.146-166.5 0zm-133.72 114.03c17.33 29.572 48.467 79.248 89.75 131.064 27.24 34.188 76.606 31.093 129.97 31.093 49.298 0 102.29.706 127.625-31.092 37.724-47.35 68.59-92.143 88.217-122-124.874 84.53-316.773 93.18-435.562-9.063z" fill="#141414" fill-opacity="1"></path></g><g font-family="Arial, Helvetica, sans-serif" font-size="232" font-style="normal" font-weight="bold" text-anchor="middle" text-decoration=" rgba(255, 255, 255, 1)" class="" style="" transform="translate(254,443)"><g><text stroke="rgba(218, 185, 101, 1)" stroke-width="58"><tspan x="0" y="0">W</tspan></text><text fill="rgba(255, 255, 255, 1)"><tspan x="0" y="0">W</tspan></text></g></g></svg>